<?xml version="1.0" encoding="UTF-8" standalone="no" ?>
<!DOCTYPE svg PUBLIC "-//W3C//DTD SVG 1.1//EN" "http://www.w3.org/Graphics/SVG/1.1/DTD/svg11.dtd">
<svg xmlns="http://www.w3.org/2000/svg" xmlns:xlink="http://www.w3.org/1999/xlink" version="1.1" width="1280" height="1024" viewBox="0 0 1280 1024" xml:space="preserve">
<desc>Created with Fabric.js 5.3.0</desc>
<defs>
</defs>
<g transform="matrix(1 0 0 1 640 512)" id="background-logo"  >
<rect style="stroke: none; stroke-width: 0; stroke-dasharray: none; stroke-linecap: butt; stroke-dashoffset: 0; stroke-linejoin: miter; stroke-miterlimit: 4; fill: rgb(32,19,38); fill-rule: nonzero; opacity: 1;"  paint-order="stroke"  x="-640" y="-512" rx="0" ry="0" width="1280" height="1024" />
</g>
<g transform="matrix(2.5639754059025885 0 0 2.5639754059025885 639.5480689690829 430.73173187829)" id="logo-logo"  >
<g style=""  paint-order="stroke"   >
		<g transform="matrix(1.2473979197364924 0 0 1.2473979197364924 -74.20616732198368 -89.94268902173403)"  >
<path style="stroke: none; stroke-width: 1; stroke-dasharray: none; stroke-linecap: butt; stroke-dashoffset: 0; stroke-linejoin: miter; stroke-miterlimit: 4; fill: rgb(121,32,136); fill-rule: nonzero; opacity: 1;"  paint-order="stroke"  transform=" translate(-103.0112305, -57.895751950000005)" d="M 91.2294922 72.3334961 C 89.76269529999999 72.3334961 88.5742188 71.14404300000001 88.5742188 69.6777344 L 88.5742188 46.1142578 C 88.5742188 44.6474609 89.7626954 43.4580078 91.2294922 43.4580078 L 114.7929688 43.4580078 C 116.2607422 43.4580078 117.4482422 44.6474609 117.4482422 46.1142578 C 117.4482422 47.580566399999995 116.2607422 48.7700195 114.7929688 48.7700195 L 93.8857422 48.7700195 L 93.8857422 69.6777343 C 93.8857422 71.144043 92.6972656 72.3334961 91.2294922 72.3334961 z" stroke-linecap="round" />
</g>
		<g transform="matrix(1.2473979197364924 0 0 1.2473979197364924 -74.20616732198368 89.9423844695319)"  >
<path style="stroke: none; stroke-width: 1; stroke-dasharray: none; stroke-linecap: butt; stroke-dashoffset: 0; stroke-linejoin: miter; stroke-miterlimit: 4; fill: rgb(121,32,136); fill-rule: nonzero; opacity: 1;"  paint-order="stroke"  transform=" translate(-103.0112305, -202.1040039)" d="M 114.7929688 216.5419922 L 91.2294922 216.5419922 C 89.76269529999999 216.5419922 88.5742188 215.3525391 88.5742188 213.8857422 L 88.5742188 190.3222656 C 88.5742188 188.85644530000002 89.7626954 187.6660156 91.2294922 187.6660156 C 92.6972656 187.6660156 93.8857422 188.85644530000002 93.8857422 190.3222656 L 93.8857422 211.2294922 L 114.7929688 211.2294922 C 116.2607422 211.2294922 117.4482422 212.41992190000002 117.4482422 213.8857422 C 117.4482422 215.3525391 116.2607422 216.5419922 114.7929688 216.5419922 z" stroke-linecap="round" />
</g>
		<g transform="matrix(1.2473979197364924 0 0 1.2473979197364924 74.20434007114096 89.9423844695319)"  >
<path style="stroke: none; stroke-width: 1; stroke-dasharray: none; stroke-linecap: butt; stroke-dashoffset: 0; stroke-linejoin: miter; stroke-miterlimit: 4; fill: rgb(199,72,159); fill-rule: nonzero; opacity: 1;"  paint-order="stroke"  transform=" translate(-221.98730465, -202.1040039)" d="M 233.7705078 216.5419922 L 210.20507809999998 216.5419922 C 208.7382812 216.5419922 207.54882809999998 215.3525391 207.54882809999998 213.8857422 C 207.54882809999998 212.41992190000002 208.7382812 211.2294922 210.20507809999998 211.2294922 L 231.1142578 211.2294922 L 231.1142578 190.3222656 C 231.1142578 188.85644530000002 232.3037109 187.6660156 233.7705078 187.6660156 C 235.23632809999998 187.6660156 236.4257812 188.85644530000002 236.4257812 190.3222656 L 236.4257812 213.8857422 C 236.4257813 215.3525391 235.2363281 216.5419922 233.7705078 216.5419922 z" stroke-linecap="round" />
</g>
		<g transform="matrix(1.2473979197364924 0 0 1.2473979197364924 74.20434007114096 -89.94268902173403)"  >
<path style="stroke: none; stroke-width: 1; stroke-dasharray: none; stroke-linecap: butt; stroke-dashoffset: 0; stroke-linejoin: miter; stroke-miterlimit: 4; fill: rgb(199,72,159); fill-rule: nonzero; opacity: 1;"  paint-order="stroke"  transform=" translate(-221.98730465, -57.895751950000005)" d="M 233.7705078 72.3334961 C 232.3037109 72.3334961 231.1142578 71.14404300000001 231.1142578 69.6777344 L 231.1142578 48.7700195 L 210.20507809999998 48.7700195 C 208.7382812 48.7700195 207.54882809999998 47.580566399999995 207.54882809999998 46.1142578 C 207.54882809999998 44.6474609 208.7382812 43.4580078 210.20507809999998 43.4580078 L 233.7705078 43.4580078 C 235.23632809999998 43.4580078 236.4257812 44.6474609 236.4257812 46.1142578 L 236.4257812 69.67773439999999 C 236.4257813 71.144043 235.2363281 72.3334961 233.7705078 72.3334961 z" stroke-linecap="round" />
</g>
		<g transform="matrix(1.2473979197364924 0 0 1.2473979197364924 35.61563119428155 0.00030461457197361597)"  >
<path style="stroke: none; stroke-width: 1; stroke-dasharray: none; stroke-linecap: butt; stroke-dashoffset: 0; stroke-linejoin: miter; stroke-miterlimit: 4; fill: rgb(199,72,159); fill-rule: nonzero; opacity: 1;"  paint-order="stroke"  transform=" translate(-191.0519405081301, -130.0002442)" d="M 228.2265625 150.3857422 L 216.0595703 123.22851560000001 C 215.75878899999998 91.42871090000001 190.4921875 65.49658200000002 158.9589844 64.109375 L 158.9589844 54.0820313 C 158.9589844 52.6157227 157.76953129999998 51.4262696 156.3027344 51.4262696 C 155.6181641 51.4262696 155.00292969999998 51.6923829 154.5322266 52.116211 C 153.9931641 52.6020508 153.6464844 53.2988282 153.6464844 54.0820313 L 153.6464844 64.1044922 L 153.6464844 66.6982422 L 153.6464844 69.421875 L 153.6464844 74.7768555 L 153.6464844 80.0888672 L 153.6464844 85.394043 L 153.6464844 90.7441407 L 153.6464844 96.0507813 L 153.6464844 101.4028321 L 153.6464844 106.7651368 L 153.6464844 112.15820319999999 L 153.6464844 142.23046879999998 L 153.6464844 155.03320319999997 L 153.6464844 173.11718759999997 L 153.6464844 195.91308599999996 L 153.6464844 205.91796879999995 C 153.6464844 206.70117189999996 153.9931641 207.39843759999997 154.5322266 207.88378909999994 C 155.0029297 208.30761719999995 155.6181641 208.57421879999995 156.3027344 208.57421879999995 C 157.76953129999998 208.57421879999995 158.9589844 207.38378909999994 158.9589844 205.91796879999995 L 158.9589844 109.19433599999995 L 158.9589844 98.5703125 L 158.9589844 87.9462891 L 158.9589844 77.3222656 L 158.9589844 69.421875 C 187.75292969999998 70.8120117 210.7509766 94.6694336 210.7509766 123.80273439999999 C 210.7509766 124.1762696 210.8310547 124.54638669999999 210.9833985 124.88867189999999 L 221.70019539999998 148.81542969999998 L 210.75097659999997 148.81542969999998 C 209.94531249999997 148.81542969999998 209.18164069999997 149.18164059999998 208.67675779999996 149.8115235 C 208.17480469999995 150.4404298 207.98144529999996 151.2636719 208.15722649999995 152.05078129999998 C 210.27734369999996 161.53515629999998 212.18359369999996 178.40332039999998 208.26855459999996 183.29296879999998 C 207.62499989999995 184.0917969 206.89160149999995 184.44824219999998 205.88867179999997 184.44824219999998 C 205.77832019999997 184.44824219999998 194.73925769999997 184.3808594 177.65527339999997 181.12792969999998 C 176.22265619999996 180.86035159999997 174.82617179999997 181.79785159999997 174.54882809999998 183.241211 C 174.27636719999998 184.6816407 175.22070309999998 186.0722657 176.6621094 186.3466798 C 194.2822266 189.7001954 205.4121094 189.7607423 205.881836 189.7607423 C 208.50390629999998 189.7607423 210.7656251 188.6728517 212.41113289999998 186.6132814 C 218.006836 179.6328126 215.41992199999999 161.723633 213.9990235 154.1269533 L 225.80175789999998 154.1269533 C 226.70117199999999 154.1269533 227.54199229999998 153.6708986 228.02929699999999 152.9150392 C 228.5205078 152.1591797 228.5927734 151.2070313 228.2265625 150.3857422 z" stroke-linecap="round" />
</g>
		<g transform="matrix(1.2473979197364924 0 0 1.2473979197364924 -37.27189546598902 -69.43828116386334)"  >
<path style="stroke: none; stroke-width: 1; stroke-dasharray: none; stroke-linecap: butt; stroke-dashoffset: 0; stroke-linejoin: miter; stroke-miterlimit: 4; fill: rgb(121,32,136); fill-rule: nonzero; opacity: 1;"  paint-order="stroke"  transform=" translate(-132.62028409197399, -74.3334961)" d="M 115.8300781 83.4296875 C 116.35546869999999 84.0039063 117.071289 84.2944336 117.7910156 84.2944336 C 118.430664 84.2944336 119.07421869999999 84.06445310000001 119.58203119999999 83.5991211 C 128.0966796 75.8178711 138.7617187 71.0126953 150.1054687 69.72070310000001 L 150.1054687 64.3725586 C 137.4277344 65.6865234 125.5 70.9970703 115.9990234 79.6772461 C 114.9169922 80.6665039 114.8408203 82.347168 115.8300781 83.4296875 z" stroke-linecap="round" />
</g>
		<g transform="matrix(1.2473979197364924 0 0 1.2473979197364924 -72.30665252224225 -10.910486308593818)"  >
<path style="stroke: none; stroke-width: 1; stroke-dasharray: none; stroke-linecap: butt; stroke-dashoffset: 0; stroke-linejoin: miter; stroke-miterlimit: 4; fill: rgb(121,32,136); fill-rule: nonzero; opacity: 1;"  paint-order="stroke"  transform=" translate(-104.534012260084, -121.25340347617495)" d="M 101.8535156 123.8027344 C 101.8535156 112.3452149 105.37109369999999 101.3837891 112.0263672 92.10498050000001 C 112.8837891 90.91357420000001 112.6103516 89.25341800000001 111.4160156 88.39941410000002 C 110.2246093 87.54150390000001 108.56640619999999 87.81835940000002 107.7109375 89.00976570000002 C 100.4033203 99.19628910000002 96.5419922 111.22802740000002 96.5419922 123.80273450000001 C 96.5419922 134.13476580000003 99.22363279999999 144.32128920000002 104.29589849999999 153.2607423 C 104.7851563 154.12402360000002 105.6835938 154.6064454 106.60742189999999 154.6064454 C 107.05175779999999 154.6064454 107.5029297 154.4951173 107.91601569999999 154.2607423 C 109.19238289999998 153.5361329 109.6406251 151.9160157 108.91601569999999 150.6396485 C 104.2958984 142.4980469 101.8535156 133.2177734 101.8535156 123.8027344 z" stroke-linecap="round" />
</g>
		<g transform="matrix(1.2473979197364924 0 0 1.2473979197364924 -56.71901048970756 59.1116351588787)"  >
<path style="stroke: none; stroke-width: 1; stroke-dasharray: none; stroke-linecap: butt; stroke-dashoffset: 0; stroke-linejoin: miter; stroke-miterlimit: 4; fill: rgb(121,32,136); fill-rule: nonzero; opacity: 1;"  paint-order="stroke"  transform=" translate(-117.03013862513959, -177.38795393483244)" d="M 111.4443359 159.1484375 C 110.1591796 159.8574219 109.6943359 161.4746094 110.4042968 162.7578125 C 113.49218739999999 168.3427734 118.6757812 179.7382813 118.6757812 193.3017578 C 118.6757812 194.76855469999998 119.8662109 195.9580078 121.3320312 195.9580078 C 122.79882810000001 195.9580078 123.9882812 194.76855469999998 123.9882812 193.3017578 C 123.9882812 178.546875 118.3896484 166.22070309999998 115.0517578 160.18847649999998 C 114.3427734 158.9013672 112.7207031 158.4433594 111.4443359 159.1484375 z" stroke-linecap="round" />
</g>
		<g transform="matrix(1.2473979197364924 0 0 1.2473979197364924 -50.84908316237795 43.42770519255933)"  >
<path style="stroke: none; stroke-width: 1; stroke-dasharray: none; stroke-linecap: butt; stroke-dashoffset: 0; stroke-linejoin: miter; stroke-miterlimit: 4; fill: rgb(121,32,136); fill-rule: nonzero; opacity: 1;"  paint-order="stroke"  transform=" translate(-121.73587625260782, -164.81463653693862)" d="M 121.5185547 150.4648438 C 118.0712891 145.97558600000002 115.56738279999999 140.9804688 114.07617189999999 135.6181641 C 113.6826172 134.2041016 112.21582029999999 133.375 110.80566409999999 133.7695313 C 109.39160159999999 134.16210940000002 108.56445319999999 135.6269532 108.95703129999998 137.03906260000002 C 110.63085939999998 143.06347670000002 113.44042969999998 148.669922 117.25878909999999 153.63964850000002 L 117.58300789999998 154.08398440000002 C 118.06054699999999 154.79101570000003 129.30078129999998 171.6435547 129.30078129999998 193.30175780000002 C 129.30078129999998 194.7685547 130.4902344 195.95800780000002 131.95605469999998 195.95800780000002 C 133.42285159999997 195.95800780000002 134.61230469999998 194.7685547 134.61230469999998 193.30175780000002 C 134.61230469999998 170.0322265 122.49804689999998 151.8691406 121.93359379999998 151.03906250000003 L 121.5185547 150.4648438 z" stroke-linecap="round" />
</g>
		<g transform="matrix(1.2473979197364924 0 0 1.2473979197364924 -53.46047052831295 -29.892489828827024)"  >
<path style="stroke: none; stroke-width: 1; stroke-dasharray: none; stroke-linecap: butt; stroke-dashoffset: 0; stroke-linejoin: miter; stroke-miterlimit: 4; fill: rgb(121,32,136); fill-rule: nonzero; opacity: 1;"  paint-order="stroke"  transform=" translate(-119.64240846288546, -106.0361233926527)" d="M 131.6279297 84.3374023 C 130.7773438 83.14111319999999 129.1201172 82.8608398 127.92382810000001 83.70800779999999 C 114.92773430000001 92.93505859999999 107.16601560000001 107.9233398 107.16601560000001 123.80273439999999 C 107.16601560000001 124.64990239999999 107.18847650000001 125.49218749999999 107.22949220000001 126.3310547 C 107.30078130000001 127.75 108.4746094 128.8535156 109.8808594 128.8535156 C 109.92578130000001 128.8535156 109.9707032 128.8515625 110.015625 128.8505859 C 111.4804688 128.7773437 112.6103516 127.5292968 112.5341797 126.0644531 C 112.4960938 125.3154297 112.4785156 124.56005859999999 112.4785156 123.8027343 C 112.4785156 109.642578 119.40234369999999 96.2724609 130.9980469 88.04150379999999 C 132.1953125 87.1923828 132.4785156 85.5341797 131.6279297 84.3374023 z" stroke-linecap="round" />
</g>
		<g transform="matrix(1.2473979197364924 0 0 1.2473979197364924 -22.77981910031025 -63.83229952842004)"  >
<path style="stroke: none; stroke-width: 1; stroke-dasharray: none; stroke-linecap: butt; stroke-dashoffset: 0; stroke-linejoin: miter; stroke-miterlimit: 4; fill: rgb(121,32,136); fill-rule: nonzero; opacity: 1;"  paint-order="stroke"  transform=" translate(-144.23812963779642, -78.8276367)" d="M 138.5205078 80.7753906 C 138.90039059999998 81.87158199999999 139.9277344 82.5566406 141.0273437 82.5566406 C 141.3183593 82.5566406 141.6123046 82.5097656 141.9023437 82.4077148 C 144.5683593 81.477539 147.31445309999998 80.8447265 150.1054687 80.4467773 L 150.1054687 75.09863279999999 C 146.7167968 75.52734369999999 143.38281239999998 76.26562499999999 140.1523437 77.3930664 C 138.765625 77.8754883 138.0361328 79.3901367 138.5205078 80.7753906 z" stroke-linecap="round" />
</g>
		<g transform="matrix(1.2473979197364924 0 0 1.2473979197364924 -22.363018533778472 -3.2881239518137306)"  >
<path style="stroke: none; stroke-width: 1; stroke-dasharray: none; stroke-linecap: butt; stroke-dashoffset: 0; stroke-linejoin: miter; stroke-miterlimit: 4; fill: rgb(121,32,136); fill-rule: nonzero; opacity: 1;"  paint-order="stroke"  transform=" translate(-144.57226565, -127.36401359999998)" d="M 139.0390625 123.8027344 C 139.0390625 128.65332030000002 140.9648438 132.1826172 142.5390625 134.2265625 L 143.9667969 136.2080078 C 144.85546879999998 137.5166016 147.3212891 141.328125 150.10546879999998 147.0205078 L 150.10546879999998 135.93847649999998 C 149.37207039999998 134.7451171 148.76074219999998 133.81445309999998 148.32128909999997 133.16308589999997 L 146.79589849999996 131.05273429999997 C 145.68261719999995 129.60058589999997 144.35058599999996 127.16210929999997 144.35058599999996 123.80273429999997 C 144.35058599999996 119.48291009999997 146.66113289999996 115.70312489999996 150.10546879999995 113.60205069999996 L 150.10546879999995 107.70751939999997 C 143.6416016 110.2060547 139.0390625 116.4692383 139.0390625 123.8027344 z" stroke-linecap="round" />
</g>
		<g transform="matrix(1.2473979197364924 0 0 1.2473979197364924 -28.13213763408237 33.81538332117162)"  >
<path style="stroke: none; stroke-width: 1; stroke-dasharray: none; stroke-linecap: butt; stroke-dashoffset: 0; stroke-linejoin: miter; stroke-miterlimit: 4; fill: rgb(121,32,136); fill-rule: nonzero; opacity: 1;"  paint-order="stroke"  transform=" translate(-139.9473428334519, -157.10873794652068)" d="M 138.3710938 137.5253906 C 136.8916016 135.59863280000002 135.7431641 133.46875 134.9541016 131.196289 C 134.4736328 129.8095702 132.9560547 129.071289 131.5761719 129.55761710000002 C 130.18945309999998 130.03808590000003 129.45605469999998 131.55078120000002 129.9365235 132.93652340000003 C 130.9121094 135.74902340000003 132.3300782 138.38085930000003 134.1103516 140.69628900000004 L 135.1728516 142.16699210000004 C 137.4648438 145.54882800000004 147.8789063 162.07128900000004 150.1054688 184.80957020000005 L 150.1054688 160.68652330000006 C 146.05273440000002 149.21484360000005 141.0830079 141.41796860000005 139.5263672 139.12304670000006 L 138.3710938 137.5253906 z" stroke-linecap="round" />
</g>
		<g transform="matrix(1.2473979197364924 0 0 1.2473979197364924 -28.669365101255153 -26.18134741212876)"  >
<path style="stroke: none; stroke-width: 1; stroke-dasharray: none; stroke-linecap: butt; stroke-dashoffset: 0; stroke-linejoin: miter; stroke-miterlimit: 4; fill: rgb(121,32,136); fill-rule: nonzero; opacity: 1;"  paint-order="stroke"  transform=" translate(-139.5166643316902, -109.01123049999998)" d="M 128.9824219 118.1894531 C 128.6884766 119.6264648 129.6113282 121.0307617 131.04980469999998 121.32617189999999 C 131.23046879999998 121.362793 131.41015629999998 121.37988279999999 131.58593749999997 121.37988279999999 C 132.82128909999997 121.37988279999999 133.92773439999996 120.51562499999999 134.18652339999997 119.25830079999999 C 135.89843749999997 110.90283199999999 142.19628899999998 104.39257809999998 150.10546869999996 102.11328129999998 L 150.10546869999996 96.64257819999999 C 139.6582031 99.0478516 131.2021484 107.3613281 128.9824219 118.1894531 z" stroke-linecap="round" />
</g>
		<g transform="matrix(1.2473979197364924 0 0 1.2473979197364924 -31.13818196239373 54.06111611055985)"  >
<path style="stroke: none; stroke-width: 1; stroke-dasharray: none; stroke-linecap: butt; stroke-dashoffset: 0; stroke-linejoin: miter; stroke-miterlimit: 4; fill: rgb(121,32,136); fill-rule: nonzero; opacity: 1;"  paint-order="stroke"  transform=" translate(-137.53749086821347, -173.3391103634196)" d="M 131.2753906 151.0166016 C 129.9746093 151.6894532 129.4628906 153.2919922 130.133789 154.5957032 C 133.7890624 161.6767579 139.9238281 176.1220704 139.9238281 193.3017579 C 139.9238281 194.7685548 141.11425780000002 195.9580079 142.5800781 195.9580079 C 144.046875 195.9580079 145.2363281 194.7685548 145.2363281 193.3017579 C 145.2363281 175.9169923 139.5888672 161.3310548 134.8544922 152.1572266 C 134.1835938 150.8554688 132.5820313 150.34375 131.2753906 151.0166016 z" stroke-linecap="round" />
</g>
		<g transform="matrix(1.2473979197364924 0 0 1.2473979197364924 -49.38581428987737 -5.45348202495785)"  >
<path style="stroke: none; stroke-width: 1; stroke-dasharray: none; stroke-linecap: butt; stroke-dashoffset: 0; stroke-linejoin: miter; stroke-miterlimit: 4; fill: rgb(121,32,136); fill-rule: nonzero; opacity: 1;"  paint-order="stroke"  transform=" translate(-122.90893326140073, -125.62811358054061)" d="M 124.5898438 106.8686523 C 123.24804689999999 106.2719726 121.6816407 106.87890619999999 121.0830079 108.2177734 C 118.89746099999999 113.1386718 117.7910157 118.3818359 117.7910157 123.8027343 C 117.7910157 130.7001952 119.6201173 137.446289 123.0820313 143.3115234 C 123.5800782 144.149414 124.4658204 144.6171875 125.3720704 144.6171875 C 125.8320313 144.6171875 126.2988282 144.4970703 126.7207032 144.2480469 C 127.982422 143.5009766 128.404297 141.8740235 127.6572266 140.6103516 C 124.6767578 135.5625 123.1025391 129.7509766 123.1025391 123.8027344 C 123.1025391 119.1303711 124.0576172 114.61181640000001 125.9384766 110.3754883 C 126.5332031 109.0336914 125.9316406 107.465332 124.5898438 106.8686523 z" stroke-linecap="round" />
</g>
		<g transform="matrix(1.2473979197364924 0 0 1.2473979197364924 -29.92055170111587 -44.671828958528806)"  >
<path style="stroke: none; stroke-width: 1; stroke-dasharray: none; stroke-linecap: butt; stroke-dashoffset: 0; stroke-linejoin: miter; stroke-miterlimit: 4; fill: rgb(121,32,136); fill-rule: nonzero; opacity: 1;"  paint-order="stroke"  transform=" translate(-138.5136270650215, -94.18798825)" d="M 127.5986328 98.1503906 C 126.62011720000001 99.243164 126.71386720000001 100.921875 127.80664060000001 101.9008789 C 128.3144531 102.3540039 128.9472656 102.5771484 129.5771484 102.5771484 C 130.3066406 102.5771484 131.0332031 102.277832 131.5585937 101.6914062 C 136.4589843 96.21337890000001 143.00878899999998 92.58056640000001 150.1054687 91.2231445 L 150.1054687 85.79882810000001 C 141.4873047 87.2133789 133.5126953 91.5395508 127.5986328 98.1503906 z" stroke-linecap="round" />
</g>
</g>
</g>
<g transform="matrix(1.9211538461538462 0 0 1.9211538461538462 640.8128403805929 796.1465251108715)" id="text-logo"  >
<g style=""  paint-order="stroke"   >
		<g transform="matrix(1 0 0 1 0 0)" id="text-logo-path-0"  >
<path style="stroke: none; stroke-width: 0; stroke-dasharray: none; stroke-linecap: butt; stroke-dashoffset: 0; stroke-linejoin: miter; stroke-miterlimit: 4; fill: rgb(199,72,159); fill-rule: nonzero; opacity: 1;"  paint-order="stroke"  transform=" translate(-105.00500000000001, 15.4)" d="M 14.74 -30.8 L 1.54 -30.8 L 1.54 0 L 3.3 0 C 5.24 0 6.82 -1.58 6.82 -3.52 L 6.82 -11 L 14.74 -11 C 16.68 -11 18.26 -12.58 18.26 -14.52 L 18.26 -27.28 C 18.26 -29.22 16.68 -30.8 14.74 -30.8 Z M 12.1 -15.84 L 6.82 -15.84 L 6.82 -25.96 L 12.1 -25.96 C 12.58 -25.96 12.98 -25.56 12.98 -25.08 L 12.98 -16.72 C 12.98 -16.24 12.58 -15.84 12.1 -15.84 Z M 30.71 -27.28 L 27.98 0 L 29.74 0 C 31.68 0 33.44 -1.58 33.62 -3.52 L 34.06 -7.92 L 39.51 -7.92 L 39.95 -3.52 C 40.13 -1.58 41.89 0 43.82 0 L 45.58 0 L 42.86 -27.28 C 42.68 -29.22 40.92 -30.8 38.98 -30.8 L 34.58 -30.8 C 32.65 -30.8 30.89 -29.22 30.71 -27.28 Z M 34.54 -12.76 L 35.77 -25.08 C 35.82 -25.56 36.26 -25.96 36.74 -25.96 L 36.83 -25.96 C 37.31 -25.96 37.75 -25.56 37.8 -25.08 L 39.03 -12.76 Z M 61.56 -18.92 L 61.56 -25.96 L 68.6 -25.96 C 68.11 -25.96 67.72 -25.56 67.72 -25.08 L 67.72 -23.32 C 67.72 -21.38 69.3 -19.8 71.24 -19.8 L 73 -19.8 L 73 -27.28 C 73 -29.22 71.41 -30.8 69.48 -30.8 L 59.8 -30.8 C 57.86 -30.8 56.28 -29.22 56.28 -27.28 L 56.28 -17.6 C 56.28 -15.66 57.86 -13.95 59.8 -13.82 L 66.66 -13.29 C 67.14 -13.24 67.54 -12.8 67.54 -12.32 L 67.54 -5.72 C 67.54 -5.24 67.14 -4.84 66.66 -4.84 L 60.68 -4.84 C 61.16 -4.84 61.56 -5.24 61.56 -5.72 L 61.56 -7.48 C 61.56 -9.42 59.97 -11 58.04 -11 L 56.28 -11 L 56.28 -3.52 C 56.28 -1.58 57.86 0 59.8 0 L 69.3 0 C 71.24 0 72.82 -1.58 72.82 -3.52 L 72.82 -13.64 C 72.82 -15.58 71.24 -17.29 69.3 -17.42 L 62.44 -17.95 C 61.95 -18 61.56 -18.44 61.56 -18.92 Z M 99.35 -29.48 L 99.35 -30.8 L 82.63 -30.8 L 82.63 -29.48 C 82.63 -27.54 84.22 -25.96 86.15 -25.96 L 88.35 -25.96 L 88.35 0 L 90.11 0 C 92.05 0 93.63 -1.58 93.63 -3.52 L 93.63 -25.96 L 95.83 -25.96 C 97.77 -25.96 99.35 -27.54 99.35 -29.48 Z M 122.5 -30.8 L 109.3 -30.8 L 109.3 0 L 111.06 0 C 112.99 0 114.58 -1.58 114.58 -3.52 L 114.58 -11 L 122.5 -11 C 124.43 -11 126.02 -12.58 126.02 -14.52 L 126.02 -27.28 C 126.02 -29.22 124.43 -30.8 122.5 -30.8 Z M 119.86 -15.84 L 114.58 -15.84 L 114.58 -25.96 L 119.86 -25.96 C 120.34 -25.96 120.74 -25.56 120.74 -25.08 L 120.74 -16.72 C 120.74 -16.24 120.34 -15.84 119.86 -15.84 Z M 136.97 -27.28 L 136.97 -3.52 C 136.97 -1.58 138.56 0 140.49 0 L 150.17 0 C 152.11 0 153.69 -1.58 153.69 -3.52 L 153.69 -27.28 C 153.69 -29.22 152.11 -30.8 150.17 -30.8 L 140.49 -30.8 C 138.56 -30.8 136.97 -29.22 136.97 -27.28 Z M 147.53 -4.84 L 143.13 -4.84 C 142.65 -4.84 142.25 -5.24 142.25 -5.72 L 142.25 -25.08 C 142.25 -25.56 142.65 -25.96 143.13 -25.96 L 147.53 -25.96 C 148.02 -25.96 148.41 -25.56 148.41 -25.08 L 148.41 -5.72 C 148.41 -5.24 148.02 -4.84 147.53 -4.84 Z M 178.73 -30.8 L 165.53 -30.8 L 165.53 0 L 167.29 0 C 169.22 0 170.81 -1.58 170.81 -3.52 L 170.81 -11 L 173.18 -11 L 175.82 -3.34 C 176.44 -1.5 178.55 0 180.49 0 L 182.25 0 L 178.42 -11 L 178.73 -11 C 180.66 -11 182.25 -12.58 182.25 -14.52 L 182.25 -27.28 C 182.25 -29.22 180.66 -30.8 178.73 -30.8 Z M 176.09 -15.84 L 170.81 -15.84 L 170.81 -25.96 L 176.09 -25.96 C 176.57 -25.96 176.97 -25.56 176.97 -25.08 L 176.97 -16.72 C 176.97 -16.24 176.57 -15.84 176.09 -15.84 Z M 208.47 -29.48 L 208.47 -30.8 L 191.75 -30.8 L 191.75 -29.48 C 191.75 -27.54 193.34 -25.96 195.27 -25.96 L 197.47 -25.96 L 197.47 0 L 199.23 0 C 201.17 0 202.75 -1.58 202.75 -3.52 L 202.75 -25.96 L 204.95 -25.96 C 206.89 -25.96 208.47 -27.54 208.47 -29.48 Z" stroke-linecap="round" />
</g>
</g>
</g>
<g transform="matrix(1.9211538461538462 0 0 1.9211538461538462 629.8908943672765 854.235995771637)" id="tagline-920d372a-ebda-4244-8fec-0e29f9820411-logo"  >
<g style=""  paint-order="stroke"   >
		<g transform="matrix(1 0 0 1 0 0)" id="tagline-920d372a-ebda-4244-8fec-0e29f9820411-logo-path-0"  >
<path style="stroke: none; stroke-width: 0; stroke-dasharray: none; stroke-linecap: butt; stroke-dashoffset: 0; stroke-linejoin: miter; stroke-miterlimit: 4; fill: rgb(121,32,136); fill-rule: nonzero; opacity: 1;"  paint-order="stroke"  transform=" translate(-150.73, 5.25)" d="M 5.08 -0.6 L 5.08 -4.75 L 7.92 -9.51 C 8 -9.64 8.03 -9.76 8.03 -9.9 C 8.03 -10.32 7.69 -10.65 7.27 -10.65 C 7 -10.65 6.76 -10.51 6.63 -10.29 L 4.33 -6.43 L 2.07 -10.28 C 1.95 -10.48 1.69 -10.65 1.43 -10.65 C 1 -10.65 0.67 -10.32 0.67 -9.9 C 0.67 -9.76 0.72 -9.63 0.78 -9.53 L 3.58 -4.77 L 3.58 -0.6 C 3.58 -0.18 3.92 0.15 4.33 0.15 C 4.75 0.15 5.08 -0.18 5.08 -0.6 Z M 21.39 -2.94 L 21.39 -7.56 C 21.39 -9.27 20.01 -10.65 18.29 -10.65 L 17.88 -10.65 C 16.09 -10.65 14.78 -9.33 14.78 -7.54 L 14.78 -2.96 C 14.78 -1.17 16.09 0.15 17.88 0.15 L 18.29 0.15 C 20.01 0.15 21.39 -1.23 21.39 -2.94 Z M 19.89 -7.56 L 19.89 -2.94 C 19.89 -2.07 19.17 -1.35 18.29 -1.35 L 17.88 -1.35 C 16.93 -1.35 16.27 -2.01 16.27 -2.96 L 16.27 -7.54 C 16.27 -8.49 16.93 -9.15 17.88 -9.15 L 18.29 -9.15 C 19.17 -9.15 19.89 -8.43 19.89 -7.56 Z M 28.14 -9.9 L 28.14 -2.96 C 28.14 -1.17 29.46 0.15 31.24 0.15 L 31.65 0.15 C 33.38 0.15 34.75 -1.23 34.75 -2.94 L 34.75 -9.9 C 34.75 -10.32 34.42 -10.65 34 -10.65 C 33.58 -10.65 33.25 -10.32 33.25 -9.9 L 33.25 -2.94 C 33.25 -2.07 32.53 -1.35 31.65 -1.35 L 31.24 -1.35 C 30.3 -1.35 29.64 -2.01 29.64 -2.96 L 29.64 -9.9 C 29.64 -10.32 29.31 -10.65 28.89 -10.65 C 28.47 -10.65 28.14 -10.32 28.14 -9.9 Z M 41.5 -0.6 C 41.5 -0.18 41.83 0.15 42.25 0.15 C 42.67 0.15 43 -0.18 43 -0.6 L 43 -4.3 L 44.16 -4.3 L 46.74 -0.2 C 46.86 0 47.1 0.15 47.37 0.15 C 47.79 0.15 48.12 -0.18 48.12 -0.6 C 48.12 -0.75 48.07 -0.89 48 -1 L 45.85 -4.42 C 47.17 -4.79 48.12 -5.98 48.12 -7.41 C 48.12 -9.12 46.74 -10.5 45.01 -10.5 L 42.4 -10.5 C 41.89 -10.5 41.5 -10.11 41.5 -9.6 Z M 43 -5.8 L 43 -9 L 45.01 -9 C 45.9 -9 46.62 -8.28 46.62 -7.41 C 46.62 -6.52 45.9 -5.8 45.01 -5.8 Z M 65.52 -9 L 67.24 -9 L 67.24 -0.6 C 67.24 -0.18 67.57 0.15 67.99 0.15 C 68.41 0.15 68.74 -0.18 68.74 -0.6 L 68.74 -9 L 70.47 -9 C 70.89 -9 71.22 -9.33 71.22 -9.75 C 71.22 -10.17 70.89 -10.5 70.47 -10.5 L 65.52 -10.5 C 65.1 -10.5 64.77 -10.17 64.77 -9.75 C 64.77 -9.33 65.1 -9 65.52 -9 Z M 79.47 -0.6 L 79.47 -9.9 C 79.47 -10.32 79.14 -10.65 78.72 -10.65 C 78.3 -10.65 77.97 -10.32 77.97 -9.9 L 77.97 -0.6 C 77.97 -0.18 78.3 0.15 78.72 0.15 C 79.14 0.15 79.47 -0.18 79.47 -0.6 Z M 92.83 -7.56 C 92.83 -9.27 91.45 -10.65 89.73 -10.65 L 89.32 -10.65 C 87.54 -10.65 86.22 -9.33 86.22 -7.54 L 86.22 -2.96 C 86.22 -1.17 87.54 0.15 89.32 0.15 L 89.73 0.15 C 91.45 0.15 92.83 -1.23 92.83 -2.94 C 92.83 -3.36 92.5 -3.69 92.08 -3.69 C 91.66 -3.69 91.33 -3.36 91.33 -2.94 C 91.33 -2.07 90.61 -1.35 89.73 -1.35 L 89.32 -1.35 C 88.38 -1.35 87.72 -2.01 87.72 -2.96 L 87.72 -7.54 C 87.72 -8.49 88.38 -9.15 89.32 -9.15 L 89.73 -9.15 C 90.61 -9.15 91.33 -8.43 91.33 -7.56 C 91.33 -7.14 91.66 -6.81 92.08 -6.81 C 92.5 -6.81 92.83 -7.14 92.83 -7.56 Z M 101.08 -0.6 L 101.08 -3.15 L 101.91 -4.25 L 104.67 -0.18 C 104.8 0.03 105.03 0.15 105.28 0.15 C 105.7 0.15 106.03 -0.18 106.03 -0.6 C 106.03 -0.75 105.99 -0.89 105.9 -1.02 L 102.88 -5.46 L 102.87 -5.49 L 105.88 -9.45 C 105.97 -9.57 106.03 -9.73 106.03 -9.9 C 106.03 -10.32 105.7 -10.65 105.28 -10.65 C 105.05 -10.65 104.83 -10.54 104.69 -10.35 L 101.08 -5.63 L 101.08 -9.9 C 101.08 -10.32 100.75 -10.65 100.33 -10.65 C 99.91 -10.65 99.58 -10.32 99.58 -9.9 L 99.58 -0.6 C 99.58 -0.18 99.91 0.15 100.33 0.15 C 100.75 0.15 101.08 -0.18 101.08 -0.6 Z M 118.48 -1.5 L 114.28 -1.5 L 114.28 -4.5 L 116.98 -4.5 C 117.41 -4.5 117.73 -4.83 117.73 -5.25 C 117.73 -5.67 117.41 -6 116.98 -6 L 114.28 -6 L 114.28 -9 L 118.48 -9 C 118.91 -9 119.23 -9.33 119.23 -9.75 C 119.23 -10.17 118.91 -10.5 118.48 -10.5 L 113.69 -10.5 C 113.17 -10.5 112.78 -10.11 112.78 -9.6 L 112.78 -0.9 C 112.78 -0.39 113.17 0 113.69 0 L 118.48 0 C 118.91 0 119.23 -0.33 119.23 -0.75 C 119.23 -1.17 118.91 -1.5 118.48 -1.5 Z M 126.73 -9 L 128.46 -9 L 128.46 -0.6 C 128.46 -0.18 128.79 0.15 129.21 0.15 C 129.63 0.15 129.96 -0.18 129.96 -0.6 L 129.96 -9 L 131.69 -9 C 132.1 -9 132.44 -9.33 132.44 -9.75 C 132.44 -10.17 132.1 -10.5 131.69 -10.5 L 126.73 -10.5 C 126.31 -10.5 125.98 -10.17 125.98 -9.75 C 125.98 -9.33 126.31 -9 126.73 -9 Z M 149.84 -9 L 151.56 -9 L 151.56 -0.6 C 151.56 -0.18 151.89 0.15 152.31 0.15 C 152.73 0.15 153.06 -0.18 153.06 -0.6 L 153.06 -9 L 154.79 -9 C 155.21 -9 155.54 -9.33 155.54 -9.75 C 155.54 -10.17 155.21 -10.5 154.79 -10.5 L 149.84 -10.5 C 149.42 -10.5 149.09 -10.17 149.09 -9.75 C 149.09 -9.33 149.42 -9 149.84 -9 Z M 168.9 -2.94 L 168.9 -7.56 C 168.9 -9.27 167.52 -10.65 165.8 -10.65 L 165.39 -10.65 C 163.61 -10.65 162.29 -9.33 162.29 -7.54 L 162.29 -2.96 C 162.29 -1.17 163.61 0.15 165.39 0.15 L 165.8 0.15 C 167.52 0.15 168.9 -1.23 168.9 -2.94 Z M 167.4 -7.56 L 167.4 -2.94 C 167.4 -2.07 166.68 -1.35 165.8 -1.35 L 165.39 -1.35 C 164.45 -1.35 163.79 -2.01 163.79 -2.96 L 163.79 -7.54 C 163.79 -8.49 164.45 -9.15 165.39 -9.15 L 165.8 -9.15 C 166.68 -9.15 167.4 -8.43 167.4 -7.56 Z M 189.96 -0.6 L 189.96 -4.75 L 192.8 -9.51 C 192.87 -9.64 192.9 -9.76 192.9 -9.9 C 192.9 -10.32 192.57 -10.65 192.15 -10.65 C 191.88 -10.65 191.64 -10.51 191.51 -10.29 L 189.21 -6.43 L 186.95 -10.28 C 186.83 -10.48 186.57 -10.65 186.3 -10.65 C 185.88 -10.65 185.55 -10.32 185.55 -9.9 C 185.55 -9.76 185.6 -9.63 185.66 -9.53 L 188.46 -4.77 L 188.46 -0.6 C 188.46 -0.18 188.79 0.15 189.21 0.15 C 189.63 0.15 189.96 -0.18 189.96 -0.6 Z M 205.35 -1.5 L 201.15 -1.5 L 201.15 -4.5 L 203.85 -4.5 C 204.27 -4.5 204.6 -4.83 204.6 -5.25 C 204.6 -5.67 204.27 -6 203.85 -6 L 201.15 -6 L 201.15 -9 L 205.35 -9 C 205.77 -9 206.1 -9.33 206.1 -9.75 C 206.1 -10.17 205.77 -10.5 205.35 -10.5 L 200.55 -10.5 C 200.04 -10.5 199.65 -10.11 199.65 -9.6 L 199.65 -0.9 C 199.65 -0.39 200.04 0 200.55 0 L 205.35 0 C 205.77 0 206.1 -0.33 206.1 -0.75 C 206.1 -1.17 205.77 -1.5 205.35 -1.5 Z M 212.85 -2.96 C 212.85 -1.17 214.17 0.15 215.96 0.15 L 216.36 0.15 C 218.09 0.15 219.47 -1.23 219.47 -2.94 C 219.47 -4.48 218.12 -5.19 216.47 -5.96 C 215.24 -6.55 214.35 -7.04 214.35 -7.84 C 214.35 -8.49 215.01 -9.15 215.96 -9.15 L 216.36 -9.15 C 217.25 -9.15 217.97 -8.43 217.97 -7.56 C 217.97 -7.14 218.3 -6.81 218.72 -6.81 C 219.14 -6.81 219.47 -7.14 219.47 -7.56 C 219.47 -9.27 218.09 -10.65 216.36 -10.65 L 215.96 -10.65 C 214.17 -10.65 212.85 -9.33 212.85 -7.84 C 212.85 -6.04 214.53 -5.23 215.84 -4.6 C 217.11 -4 217.97 -3.58 217.97 -2.94 C 217.97 -2.07 217.25 -1.35 216.36 -1.35 L 215.96 -1.35 C 215.01 -1.35 214.35 -2.01 214.35 -2.96 C 214.35 -3.38 214.02 -3.71 213.6 -3.71 C 213.18 -3.71 212.85 -3.38 212.85 -2.96 Z M 226.97 -9 L 228.69 -9 L 228.69 -0.6 C 228.69 -0.18 229.02 0.15 229.44 0.15 C 229.86 0.15 230.19 -0.18 230.19 -0.6 L 230.19 -9 L 231.92 -9 C 232.34 -9 232.67 -9.33 232.67 -9.75 C 232.67 -10.17 232.34 -10.5 231.92 -10.5 L 226.97 -10.5 C 226.55 -10.5 226.22 -10.17 226.22 -9.75 C 226.22 -9.33 226.55 -9 226.97 -9 Z M 245.12 -1.5 L 240.92 -1.5 L 240.92 -4.5 L 243.62 -4.5 C 244.04 -4.5 244.37 -4.83 244.37 -5.25 C 244.37 -5.67 244.04 -6 243.62 -6 L 240.92 -6 L 240.92 -9 L 245.12 -9 C 245.54 -9 245.87 -9.33 245.87 -9.75 C 245.87 -10.17 245.54 -10.5 245.12 -10.5 L 240.32 -10.5 C 239.81 -10.5 239.42 -10.11 239.42 -9.6 L 239.42 -0.9 C 239.42 -0.39 239.81 0 240.32 0 L 245.12 0 C 245.54 0 245.87 -0.33 245.87 -0.75 C 245.87 -1.17 245.54 -1.5 245.12 -1.5 Z M 252.62 -0.6 C 252.62 -0.18 252.95 0.15 253.37 0.15 C 253.79 0.15 254.12 -0.18 254.12 -0.6 L 254.12 -4.3 L 255.27 -4.3 L 257.85 -0.2 C 257.97 0 258.21 0.15 258.48 0.15 C 258.9 0.15 259.23 -0.18 259.23 -0.6 C 259.23 -0.75 259.19 -0.89 259.11 -1 L 256.97 -4.42 C 258.29 -4.79 259.23 -5.98 259.23 -7.41 C 259.23 -9.12 257.85 -10.5 256.13 -10.5 L 253.52 -10.5 C 253.01 -10.5 252.62 -10.11 252.62 -9.6 Z M 254.12 -5.8 L 254.12 -9 L 256.13 -9 C 257.01 -9 257.73 -8.28 257.73 -7.41 C 257.73 -6.52 257.01 -5.8 256.13 -5.8 Z M 272.6 -3.09 L 272.6 -7.59 C 272.6 -9.21 271.31 -10.5 269.69 -10.5 L 266.88 -10.5 C 266.37 -10.5 265.98 -10.11 265.98 -9.6 L 265.98 -0.9 C 265.98 -0.39 266.37 0 266.88 0 L 269.49 0 C 271.22 0 272.6 -1.38 272.6 -3.09 Z M 271.1 -7.59 L 271.1 -3.09 C 271.1 -2.22 270.38 -1.5 269.49 -1.5 L 267.48 -1.5 L 267.48 -9 L 269.69 -9 C 270.47 -9 271.1 -8.37 271.1 -7.59 Z M 280.81 -0.38 L 281.4 -2.25 L 284.64 -2.25 L 285.23 -0.38 C 285.33 -0.06 285.62 0.15 285.94 0.15 C 286.37 0.15 286.69 -0.18 286.69 -0.6 C 286.69 -0.67 286.68 -0.77 286.67 -0.82 L 283.75 -10.13 C 283.65 -10.44 283.37 -10.65 283.04 -10.65 L 283.02 -10.65 L 283 -10.65 C 282.68 -10.65 282.38 -10.41 282.29 -10.13 L 279.38 -0.82 C 279.36 -0.77 279.35 -0.67 279.35 -0.6 C 279.35 -0.18 279.68 0.15 280.1 0.15 C 280.43 0.15 280.73 -0.09 280.81 -0.38 Z M 281.87 -3.75 L 283.02 -7.42 L 284.18 -3.75 Z M 297.85 -0.6 L 297.85 -4.75 L 300.69 -9.51 C 300.76 -9.64 300.79 -9.76 300.79 -9.9 C 300.79 -10.32 300.46 -10.65 300.04 -10.65 C 299.77 -10.65 299.53 -10.51 299.4 -10.29 L 297.1 -6.43 L 294.84 -10.28 C 294.72 -10.48 294.46 -10.65 294.19 -10.65 C 293.77 -10.65 293.44 -10.32 293.44 -9.9 C 293.44 -9.76 293.49 -9.63 293.55 -9.53 L 296.35 -4.77 L 296.35 -0.6 C 296.35 -0.18 296.69 0.15 297.1 0.15 C 297.52 0.15 297.85 -0.18 297.85 -0.6 Z" stroke-linecap="round" />
</g>
</g>
</g>
</svg>