<?xml version="1.0" encoding="UTF-8" standalone="no" ?>
<!DOCTYPE svg PUBLIC "-//W3C//DTD SVG 1.1//EN" "http://www.w3.org/Graphics/SVG/1.1/DTD/svg11.dtd">
<svg xmlns="http://www.w3.org/2000/svg" xmlns:xlink="http://www.w3.org/1999/xlink" version="1.1" width="1280" height="1024" viewBox="0 0 1280 1024" xml:space="preserve">
<desc>Created with Fabric.js 5.3.0</desc>
<defs>
</defs>
<g transform="matrix(1 0 0 1 640 512)" id="background-logo"  >
<rect style="stroke: none; stroke-width: 0; stroke-dasharray: none; stroke-linecap: butt; stroke-dashoffset: 0; stroke-linejoin: miter; stroke-miterlimit: 4; fill: rgb(32,19,38); fill-rule: nonzero; opacity: 1;"  paint-order="stroke"  x="-640" y="-512" rx="0" ry="0" width="1280" height="1024" />
</g>
<g transform="matrix(2.30215390487424 0 0 2.3021539048742405 639.7950404858299 402.02789314485614)" id="logo-logo"  >
<g style=""  paint-order="stroke"   >
		<g transform="matrix(1.2473979197364924 0 0 1.2473979197364924 -74.20616732198368 -89.94268902173403)"  >
<path style="stroke: none; stroke-width: 1; stroke-dasharray: none; stroke-linecap: butt; stroke-dashoffset: 0; stroke-linejoin: miter; stroke-miterlimit: 4; fill: rgb(121,32,136); fill-rule: nonzero; opacity: 1;"  paint-order="stroke"  transform=" translate(-103.0112305, -57.895751950000005)" d="M 91.2294922 72.3334961 C 89.76269529999999 72.3334961 88.5742188 71.14404300000001 88.5742188 69.6777344 L 88.5742188 46.1142578 C 88.5742188 44.6474609 89.7626954 43.4580078 91.2294922 43.4580078 L 114.7929688 43.4580078 C 116.2607422 43.4580078 117.4482422 44.6474609 117.4482422 46.1142578 C 117.4482422 47.580566399999995 116.2607422 48.7700195 114.7929688 48.7700195 L 93.8857422 48.7700195 L 93.8857422 69.6777343 C 93.8857422 71.144043 92.6972656 72.3334961 91.2294922 72.3334961 z" stroke-linecap="round" />
</g>
		<g transform="matrix(1.2473979197364924 0 0 1.2473979197364924 -74.20616732198368 89.9423844695319)"  >
<path style="stroke: none; stroke-width: 1; stroke-dasharray: none; stroke-linecap: butt; stroke-dashoffset: 0; stroke-linejoin: miter; stroke-miterlimit: 4; fill: rgb(121,32,136); fill-rule: nonzero; opacity: 1;"  paint-order="stroke"  transform=" translate(-103.0112305, -202.1040039)" d="M 114.7929688 216.5419922 L 91.2294922 216.5419922 C 89.76269529999999 216.5419922 88.5742188 215.3525391 88.5742188 213.8857422 L 88.5742188 190.3222656 C 88.5742188 188.85644530000002 89.7626954 187.6660156 91.2294922 187.6660156 C 92.6972656 187.6660156 93.8857422 188.85644530000002 93.8857422 190.3222656 L 93.8857422 211.2294922 L 114.7929688 211.2294922 C 116.2607422 211.2294922 117.4482422 212.41992190000002 117.4482422 213.8857422 C 117.4482422 215.3525391 116.2607422 216.5419922 114.7929688 216.5419922 z" stroke-linecap="round" />
</g>
		<g transform="matrix(1.2473979197364924 0 0 1.2473979197364924 74.20434007114096 89.9423844695319)"  >
<path style="stroke: none; stroke-width: 1; stroke-dasharray: none; stroke-linecap: butt; stroke-dashoffset: 0; stroke-linejoin: miter; stroke-miterlimit: 4; fill: rgb(199,72,159); fill-rule: nonzero; opacity: 1;"  paint-order="stroke"  transform=" translate(-221.98730465, -202.1040039)" d="M 233.7705078 216.5419922 L 210.20507809999998 216.5419922 C 208.7382812 216.5419922 207.54882809999998 215.3525391 207.54882809999998 213.8857422 C 207.54882809999998 212.41992190000002 208.7382812 211.2294922 210.20507809999998 211.2294922 L 231.1142578 211.2294922 L 231.1142578 190.3222656 C 231.1142578 188.85644530000002 232.3037109 187.6660156 233.7705078 187.6660156 C 235.23632809999998 187.6660156 236.4257812 188.85644530000002 236.4257812 190.3222656 L 236.4257812 213.8857422 C 236.4257813 215.3525391 235.2363281 216.5419922 233.7705078 216.5419922 z" stroke-linecap="round" />
</g>
		<g transform="matrix(1.2473979197364924 0 0 1.2473979197364924 74.20434007114096 -89.94268902173403)"  >
<path style="stroke: none; stroke-width: 1; stroke-dasharray: none; stroke-linecap: butt; stroke-dashoffset: 0; stroke-linejoin: miter; stroke-miterlimit: 4; fill: rgb(199,72,159); fill-rule: nonzero; opacity: 1;"  paint-order="stroke"  transform=" translate(-221.98730465, -57.895751950000005)" d="M 233.7705078 72.3334961 C 232.3037109 72.3334961 231.1142578 71.14404300000001 231.1142578 69.6777344 L 231.1142578 48.7700195 L 210.20507809999998 48.7700195 C 208.7382812 48.7700195 207.54882809999998 47.580566399999995 207.54882809999998 46.1142578 C 207.54882809999998 44.6474609 208.7382812 43.4580078 210.20507809999998 43.4580078 L 233.7705078 43.4580078 C 235.23632809999998 43.4580078 236.4257812 44.6474609 236.4257812 46.1142578 L 236.4257812 69.67773439999999 C 236.4257813 71.144043 235.2363281 72.3334961 233.7705078 72.3334961 z" stroke-linecap="round" />
</g>
		<g transform="matrix(1.2473979197364924 0 0 1.2473979197364924 35.61563119428155 0.00030461457197361597)"  >
<path style="stroke: none; stroke-width: 1; stroke-dasharray: none; stroke-linecap: butt; stroke-dashoffset: 0; stroke-linejoin: miter; stroke-miterlimit: 4; fill: rgb(199,72,159); fill-rule: nonzero; opacity: 1;"  paint-order="stroke"  transform=" translate(-191.0519405081301, -130.0002442)" d="M 228.2265625 150.3857422 L 216.0595703 123.22851560000001 C 215.75878899999998 91.42871090000001 190.4921875 65.49658200000002 158.9589844 64.109375 L 158.9589844 54.0820313 C 158.9589844 52.6157227 157.76953129999998 51.4262696 156.3027344 51.4262696 C 155.6181641 51.4262696 155.00292969999998 51.6923829 154.5322266 52.116211 C 153.9931641 52.6020508 153.6464844 53.2988282 153.6464844 54.0820313 L 153.6464844 64.1044922 L 153.6464844 66.6982422 L 153.6464844 69.421875 L 153.6464844 74.7768555 L 153.6464844 80.0888672 L 153.6464844 85.394043 L 153.6464844 90.7441407 L 153.6464844 96.0507813 L 153.6464844 101.4028321 L 153.6464844 106.7651368 L 153.6464844 112.15820319999999 L 153.6464844 142.23046879999998 L 153.6464844 155.03320319999997 L 153.6464844 173.11718759999997 L 153.6464844 195.91308599999996 L 153.6464844 205.91796879999995 C 153.6464844 206.70117189999996 153.9931641 207.39843759999997 154.5322266 207.88378909999994 C 155.0029297 208.30761719999995 155.6181641 208.57421879999995 156.3027344 208.57421879999995 C 157.76953129999998 208.57421879999995 158.9589844 207.38378909999994 158.9589844 205.91796879999995 L 158.9589844 109.19433599999995 L 158.9589844 98.5703125 L 158.9589844 87.9462891 L 158.9589844 77.3222656 L 158.9589844 69.421875 C 187.75292969999998 70.8120117 210.7509766 94.6694336 210.7509766 123.80273439999999 C 210.7509766 124.1762696 210.8310547 124.54638669999999 210.9833985 124.88867189999999 L 221.70019539999998 148.81542969999998 L 210.75097659999997 148.81542969999998 C 209.94531249999997 148.81542969999998 209.18164069999997 149.18164059999998 208.67675779999996 149.8115235 C 208.17480469999995 150.4404298 207.98144529999996 151.2636719 208.15722649999995 152.05078129999998 C 210.27734369999996 161.53515629999998 212.18359369999996 178.40332039999998 208.26855459999996 183.29296879999998 C 207.62499989999995 184.0917969 206.89160149999995 184.44824219999998 205.88867179999997 184.44824219999998 C 205.77832019999997 184.44824219999998 194.73925769999997 184.3808594 177.65527339999997 181.12792969999998 C 176.22265619999996 180.86035159999997 174.82617179999997 181.79785159999997 174.54882809999998 183.241211 C 174.27636719999998 184.6816407 175.22070309999998 186.0722657 176.6621094 186.3466798 C 194.2822266 189.7001954 205.4121094 189.7607423 205.881836 189.7607423 C 208.50390629999998 189.7607423 210.7656251 188.6728517 212.41113289999998 186.6132814 C 218.006836 179.6328126 215.41992199999999 161.723633 213.9990235 154.1269533 L 225.80175789999998 154.1269533 C 226.70117199999999 154.1269533 227.54199229999998 153.6708986 228.02929699999999 152.9150392 C 228.5205078 152.1591797 228.5927734 151.2070313 228.2265625 150.3857422 z" stroke-linecap="round" />
</g>
		<g transform="matrix(1.2473979197364924 0 0 1.2473979197364924 -37.27189546598902 -69.43828116386334)"  >
<path style="stroke: none; stroke-width: 1; stroke-dasharray: none; stroke-linecap: butt; stroke-dashoffset: 0; stroke-linejoin: miter; stroke-miterlimit: 4; fill: rgb(121,32,136); fill-rule: nonzero; opacity: 1;"  paint-order="stroke"  transform=" translate(-132.62028409197399, -74.3334961)" d="M 115.8300781 83.4296875 C 116.35546869999999 84.0039063 117.071289 84.2944336 117.7910156 84.2944336 C 118.430664 84.2944336 119.07421869999999 84.06445310000001 119.58203119999999 83.5991211 C 128.0966796 75.8178711 138.7617187 71.0126953 150.1054687 69.72070310000001 L 150.1054687 64.3725586 C 137.4277344 65.6865234 125.5 70.9970703 115.9990234 79.6772461 C 114.9169922 80.6665039 114.8408203 82.347168 115.8300781 83.4296875 z" stroke-linecap="round" />
</g>
		<g transform="matrix(1.2473979197364924 0 0 1.2473979197364924 -72.30665252224225 -10.910486308593818)"  >
<path style="stroke: none; stroke-width: 1; stroke-dasharray: none; stroke-linecap: butt; stroke-dashoffset: 0; stroke-linejoin: miter; stroke-miterlimit: 4; fill: rgb(121,32,136); fill-rule: nonzero; opacity: 1;"  paint-order="stroke"  transform=" translate(-104.534012260084, -121.25340347617495)" d="M 101.8535156 123.8027344 C 101.8535156 112.3452149 105.37109369999999 101.3837891 112.0263672 92.10498050000001 C 112.8837891 90.91357420000001 112.6103516 89.25341800000001 111.4160156 88.39941410000002 C 110.2246093 87.54150390000001 108.56640619999999 87.81835940000002 107.7109375 89.00976570000002 C 100.4033203 99.19628910000002 96.5419922 111.22802740000002 96.5419922 123.80273450000001 C 96.5419922 134.13476580000003 99.22363279999999 144.32128920000002 104.29589849999999 153.2607423 C 104.7851563 154.12402360000002 105.6835938 154.6064454 106.60742189999999 154.6064454 C 107.05175779999999 154.6064454 107.5029297 154.4951173 107.91601569999999 154.2607423 C 109.19238289999998 153.5361329 109.6406251 151.9160157 108.91601569999999 150.6396485 C 104.2958984 142.4980469 101.8535156 133.2177734 101.8535156 123.8027344 z" stroke-linecap="round" />
</g>
		<g transform="matrix(1.2473979197364924 0 0 1.2473979197364924 -56.71901048970756 59.1116351588787)"  >
<path style="stroke: none; stroke-width: 1; stroke-dasharray: none; stroke-linecap: butt; stroke-dashoffset: 0; stroke-linejoin: miter; stroke-miterlimit: 4; fill: rgb(121,32,136); fill-rule: nonzero; opacity: 1;"  paint-order="stroke"  transform=" translate(-117.03013862513959, -177.38795393483244)" d="M 111.4443359 159.1484375 C 110.1591796 159.8574219 109.6943359 161.4746094 110.4042968 162.7578125 C 113.49218739999999 168.3427734 118.6757812 179.7382813 118.6757812 193.3017578 C 118.6757812 194.76855469999998 119.8662109 195.9580078 121.3320312 195.9580078 C 122.79882810000001 195.9580078 123.9882812 194.76855469999998 123.9882812 193.3017578 C 123.9882812 178.546875 118.3896484 166.22070309999998 115.0517578 160.18847649999998 C 114.3427734 158.9013672 112.7207031 158.4433594 111.4443359 159.1484375 z" stroke-linecap="round" />
</g>
		<g transform="matrix(1.2473979197364924 0 0 1.2473979197364924 -50.84908316237795 43.42770519255933)"  >
<path style="stroke: none; stroke-width: 1; stroke-dasharray: none; stroke-linecap: butt; stroke-dashoffset: 0; stroke-linejoin: miter; stroke-miterlimit: 4; fill: rgb(121,32,136); fill-rule: nonzero; opacity: 1;"  paint-order="stroke"  transform=" translate(-121.73587625260782, -164.81463653693862)" d="M 121.5185547 150.4648438 C 118.0712891 145.97558600000002 115.56738279999999 140.9804688 114.07617189999999 135.6181641 C 113.6826172 134.2041016 112.21582029999999 133.375 110.80566409999999 133.7695313 C 109.39160159999999 134.16210940000002 108.56445319999999 135.6269532 108.95703129999998 137.03906260000002 C 110.63085939999998 143.06347670000002 113.44042969999998 148.669922 117.25878909999999 153.63964850000002 L 117.58300789999998 154.08398440000002 C 118.06054699999999 154.79101570000003 129.30078129999998 171.6435547 129.30078129999998 193.30175780000002 C 129.30078129999998 194.7685547 130.4902344 195.95800780000002 131.95605469999998 195.95800780000002 C 133.42285159999997 195.95800780000002 134.61230469999998 194.7685547 134.61230469999998 193.30175780000002 C 134.61230469999998 170.0322265 122.49804689999998 151.8691406 121.93359379999998 151.03906250000003 L 121.5185547 150.4648438 z" stroke-linecap="round" />
</g>
		<g transform="matrix(1.2473979197364924 0 0 1.2473979197364924 -53.46047052831295 -29.892489828827024)"  >
<path style="stroke: none; stroke-width: 1; stroke-dasharray: none; stroke-linecap: butt; stroke-dashoffset: 0; stroke-linejoin: miter; stroke-miterlimit: 4; fill: rgb(121,32,136); fill-rule: nonzero; opacity: 1;"  paint-order="stroke"  transform=" translate(-119.64240846288546, -106.0361233926527)" d="M 131.6279297 84.3374023 C 130.7773438 83.14111319999999 129.1201172 82.8608398 127.92382810000001 83.70800779999999 C 114.92773430000001 92.93505859999999 107.16601560000001 107.9233398 107.16601560000001 123.80273439999999 C 107.16601560000001 124.64990239999999 107.18847650000001 125.49218749999999 107.22949220000001 126.3310547 C 107.30078130000001 127.75 108.4746094 128.8535156 109.8808594 128.8535156 C 109.92578130000001 128.8535156 109.9707032 128.8515625 110.015625 128.8505859 C 111.4804688 128.7773437 112.6103516 127.5292968 112.5341797 126.0644531 C 112.4960938 125.3154297 112.4785156 124.56005859999999 112.4785156 123.8027343 C 112.4785156 109.642578 119.40234369999999 96.2724609 130.9980469 88.04150379999999 C 132.1953125 87.1923828 132.4785156 85.5341797 131.6279297 84.3374023 z" stroke-linecap="round" />
</g>
		<g transform="matrix(1.2473979197364924 0 0 1.2473979197364924 -22.77981910031025 -63.83229952842004)"  >
<path style="stroke: none; stroke-width: 1; stroke-dasharray: none; stroke-linecap: butt; stroke-dashoffset: 0; stroke-linejoin: miter; stroke-miterlimit: 4; fill: rgb(121,32,136); fill-rule: nonzero; opacity: 1;"  paint-order="stroke"  transform=" translate(-144.23812963779642, -78.8276367)" d="M 138.5205078 80.7753906 C 138.90039059999998 81.87158199999999 139.9277344 82.5566406 141.0273437 82.5566406 C 141.3183593 82.5566406 141.6123046 82.5097656 141.9023437 82.4077148 C 144.5683593 81.477539 147.31445309999998 80.8447265 150.1054687 80.4467773 L 150.1054687 75.09863279999999 C 146.7167968 75.52734369999999 143.38281239999998 76.26562499999999 140.1523437 77.3930664 C 138.765625 77.8754883 138.0361328 79.3901367 138.5205078 80.7753906 z" stroke-linecap="round" />
</g>
		<g transform="matrix(1.2473979197364924 0 0 1.2473979197364924 -22.363018533778472 -3.2881239518137306)"  >
<path style="stroke: none; stroke-width: 1; stroke-dasharray: none; stroke-linecap: butt; stroke-dashoffset: 0; stroke-linejoin: miter; stroke-miterlimit: 4; fill: rgb(121,32,136); fill-rule: nonzero; opacity: 1;"  paint-order="stroke"  transform=" translate(-144.57226565, -127.36401359999998)" d="M 139.0390625 123.8027344 C 139.0390625 128.65332030000002 140.9648438 132.1826172 142.5390625 134.2265625 L 143.9667969 136.2080078 C 144.85546879999998 137.5166016 147.3212891 141.328125 150.10546879999998 147.0205078 L 150.10546879999998 135.93847649999998 C 149.37207039999998 134.7451171 148.76074219999998 133.81445309999998 148.32128909999997 133.16308589999997 L 146.79589849999996 131.05273429999997 C 145.68261719999995 129.60058589999997 144.35058599999996 127.16210929999997 144.35058599999996 123.80273429999997 C 144.35058599999996 119.48291009999997 146.66113289999996 115.70312489999996 150.10546879999995 113.60205069999996 L 150.10546879999995 107.70751939999997 C 143.6416016 110.2060547 139.0390625 116.4692383 139.0390625 123.8027344 z" stroke-linecap="round" />
</g>
		<g transform="matrix(1.2473979197364924 0 0 1.2473979197364924 -28.13213763408237 33.81538332117162)"  >
<path style="stroke: none; stroke-width: 1; stroke-dasharray: none; stroke-linecap: butt; stroke-dashoffset: 0; stroke-linejoin: miter; stroke-miterlimit: 4; fill: rgb(121,32,136); fill-rule: nonzero; opacity: 1;"  paint-order="stroke"  transform=" translate(-139.9473428334519, -157.10873794652068)" d="M 138.3710938 137.5253906 C 136.8916016 135.59863280000002 135.7431641 133.46875 134.9541016 131.196289 C 134.4736328 129.8095702 132.9560547 129.071289 131.5761719 129.55761710000002 C 130.18945309999998 130.03808590000003 129.45605469999998 131.55078120000002 129.9365235 132.93652340000003 C 130.9121094 135.74902340000003 132.3300782 138.38085930000003 134.1103516 140.69628900000004 L 135.1728516 142.16699210000004 C 137.4648438 145.54882800000004 147.8789063 162.07128900000004 150.1054688 184.80957020000005 L 150.1054688 160.68652330000006 C 146.05273440000002 149.21484360000005 141.0830079 141.41796860000005 139.5263672 139.12304670000006 L 138.3710938 137.5253906 z" stroke-linecap="round" />
</g>
		<g transform="matrix(1.2473979197364924 0 0 1.2473979197364924 -28.669365101255153 -26.18134741212876)"  >
<path style="stroke: none; stroke-width: 1; stroke-dasharray: none; stroke-linecap: butt; stroke-dashoffset: 0; stroke-linejoin: miter; stroke-miterlimit: 4; fill: rgb(121,32,136); fill-rule: nonzero; opacity: 1;"  paint-order="stroke"  transform=" translate(-139.5166643316902, -109.01123049999998)" d="M 128.9824219 118.1894531 C 128.6884766 119.6264648 129.6113282 121.0307617 131.04980469999998 121.32617189999999 C 131.23046879999998 121.362793 131.41015629999998 121.37988279999999 131.58593749999997 121.37988279999999 C 132.82128909999997 121.37988279999999 133.92773439999996 120.51562499999999 134.18652339999997 119.25830079999999 C 135.89843749999997 110.90283199999999 142.19628899999998 104.39257809999998 150.10546869999996 102.11328129999998 L 150.10546869999996 96.64257819999999 C 139.6582031 99.0478516 131.2021484 107.3613281 128.9824219 118.1894531 z" stroke-linecap="round" />
</g>
		<g transform="matrix(1.2473979197364924 0 0 1.2473979197364924 -31.13818196239373 54.06111611055985)"  >
<path style="stroke: none; stroke-width: 1; stroke-dasharray: none; stroke-linecap: butt; stroke-dashoffset: 0; stroke-linejoin: miter; stroke-miterlimit: 4; fill: rgb(121,32,136); fill-rule: nonzero; opacity: 1;"  paint-order="stroke"  transform=" translate(-137.53749086821347, -173.3391103634196)" d="M 131.2753906 151.0166016 C 129.9746093 151.6894532 129.4628906 153.2919922 130.133789 154.5957032 C 133.7890624 161.6767579 139.9238281 176.1220704 139.9238281 193.3017579 C 139.9238281 194.7685548 141.11425780000002 195.9580079 142.5800781 195.9580079 C 144.046875 195.9580079 145.2363281 194.7685548 145.2363281 193.3017579 C 145.2363281 175.9169923 139.5888672 161.3310548 134.8544922 152.1572266 C 134.1835938 150.8554688 132.5820313 150.34375 131.2753906 151.0166016 z" stroke-linecap="round" />
</g>
		<g transform="matrix(1.2473979197364924 0 0 1.2473979197364924 -49.38581428987737 -5.45348202495785)"  >
<path style="stroke: none; stroke-width: 1; stroke-dasharray: none; stroke-linecap: butt; stroke-dashoffset: 0; stroke-linejoin: miter; stroke-miterlimit: 4; fill: rgb(121,32,136); fill-rule: nonzero; opacity: 1;"  paint-order="stroke"  transform=" translate(-122.90893326140073, -125.62811358054061)" d="M 124.5898438 106.8686523 C 123.24804689999999 106.2719726 121.6816407 106.87890619999999 121.0830079 108.2177734 C 118.89746099999999 113.1386718 117.7910157 118.3818359 117.7910157 123.8027343 C 117.7910157 130.7001952 119.6201173 137.446289 123.0820313 143.3115234 C 123.5800782 144.149414 124.4658204 144.6171875 125.3720704 144.6171875 C 125.8320313 144.6171875 126.2988282 144.4970703 126.7207032 144.2480469 C 127.982422 143.5009766 128.404297 141.8740235 127.6572266 140.6103516 C 124.6767578 135.5625 123.1025391 129.7509766 123.1025391 123.8027344 C 123.1025391 119.1303711 124.0576172 114.61181640000001 125.9384766 110.3754883 C 126.5332031 109.0336914 125.9316406 107.465332 124.5898438 106.8686523 z" stroke-linecap="round" />
</g>
		<g transform="matrix(1.2473979197364924 0 0 1.2473979197364924 -29.92055170111587 -44.671828958528806)"  >
<path style="stroke: none; stroke-width: 1; stroke-dasharray: none; stroke-linecap: butt; stroke-dashoffset: 0; stroke-linejoin: miter; stroke-miterlimit: 4; fill: rgb(121,32,136); fill-rule: nonzero; opacity: 1;"  paint-order="stroke"  transform=" translate(-138.5136270650215, -94.18798825)" d="M 127.5986328 98.1503906 C 126.62011720000001 99.243164 126.71386720000001 100.921875 127.80664060000001 101.9008789 C 128.3144531 102.3540039 128.9472656 102.5771484 129.5771484 102.5771484 C 130.3066406 102.5771484 131.0332031 102.277832 131.5585937 101.6914062 C 136.4589843 96.21337890000001 143.00878899999998 92.58056640000001 150.1054687 91.2231445 L 150.1054687 85.79882810000001 C 141.4873047 87.2133789 133.5126953 91.5395508 127.5986328 98.1503906 z" stroke-linecap="round" />
</g>
</g>
</g>
<g transform="matrix(1.9211538461538462 0 0 1.9211538461538462 641.4788237890984 756.738649259203)" id="text-logo"  >
<g style=""  paint-order="stroke"   >
		<g transform="matrix(1 0 0 1 0 0)" id="text-logo-path-0"  >
<path style="stroke: none; stroke-width: 0; stroke-dasharray: none; stroke-linecap: butt; stroke-dashoffset: 0; stroke-linejoin: miter; stroke-miterlimit: 4; fill: rgb(199,72,159); fill-rule: nonzero; opacity: 1;"  paint-order="stroke"  transform=" translate(-157.51, 23.1)" d="M 22.11 -46.2 L 2.31 -46.2 L 2.31 0 L 4.95 0 C 7.85 0 10.23 -2.38 10.23 -5.28 L 10.23 -16.5 L 22.11 -16.5 C 25.01 -16.5 27.39 -18.88 27.39 -21.78 L 27.39 -40.92 C 27.39 -43.82 25.01 -46.2 22.11 -46.2 Z M 18.15 -23.76 L 10.23 -23.76 L 10.23 -38.94 L 18.15 -38.94 C 18.88 -38.94 19.47 -38.35 19.47 -37.62 L 19.47 -25.08 C 19.47 -24.35 18.88 -23.76 18.15 -23.76 Z M 46.07 -40.92 L 41.98 0 L 44.62 0 C 47.52 0 50.16 -2.38 50.42 -5.28 L 51.08 -11.88 L 59.27 -11.88 L 59.93 -5.28 C 60.19 -2.38 62.83 0 65.74 0 L 68.38 0 L 64.28 -40.92 C 64.02 -43.82 61.38 -46.2 58.48 -46.2 L 51.88 -46.2 C 48.97 -46.2 46.33 -43.82 46.07 -40.92 Z M 51.81 -19.14 L 53.66 -37.62 C 53.72 -38.35 54.38 -38.94 55.11 -38.94 L 55.24 -38.94 C 55.97 -38.94 56.63 -38.35 56.69 -37.62 L 58.54 -19.14 Z M 92.33 -28.38 L 92.33 -38.94 L 102.89 -38.94 C 102.17 -38.94 101.57 -38.35 101.57 -37.62 L 101.57 -34.98 C 101.57 -32.08 103.95 -29.7 106.85 -29.7 L 109.49 -29.7 L 109.49 -40.92 C 109.49 -43.82 107.12 -46.2 104.21 -46.2 L 89.69 -46.2 C 86.79 -46.2 84.41 -43.82 84.41 -40.92 L 84.41 -26.4 C 84.41 -23.5 86.79 -20.92 89.69 -20.72 L 99.99 -19.93 C 100.72 -19.87 101.31 -19.21 101.31 -18.48 L 101.31 -8.58 C 101.31 -7.85 100.72 -7.26 99.99 -7.26 L 91.01 -7.26 C 91.74 -7.26 92.33 -7.85 92.33 -8.58 L 92.33 -11.22 C 92.33 -14.12 89.96 -16.5 87.05 -16.5 L 84.41 -16.5 L 84.41 -5.28 C 84.41 -2.38 86.79 0 89.69 0 L 103.95 0 C 106.85 0 109.23 -2.38 109.23 -5.28 L 109.23 -20.46 C 109.23 -23.36 106.85 -25.94 103.95 -26.14 L 93.65 -26.93 C 92.93 -26.99 92.33 -27.65 92.33 -28.38 Z M 149.03 -44.22 L 149.03 -46.2 L 123.95 -46.2 L 123.95 -44.22 C 123.95 -41.32 126.32 -38.94 129.23 -38.94 L 132.53 -38.94 L 132.53 0 L 135.17 0 C 138.07 0 140.45 -2.38 140.45 -5.28 L 140.45 -38.94 L 143.75 -38.94 C 146.65 -38.94 149.03 -41.32 149.03 -44.22 Z M 183.74 -46.2 L 163.94 -46.2 L 163.94 0 L 166.58 0 C 169.49 0 171.86 -2.38 171.86 -5.28 L 171.86 -16.5 L 183.74 -16.5 C 186.65 -16.5 189.02 -18.88 189.02 -21.78 L 189.02 -40.92 C 189.02 -43.82 186.65 -46.2 183.74 -46.2 Z M 179.78 -23.76 L 171.86 -23.76 L 171.86 -38.94 L 179.78 -38.94 C 180.51 -38.94 181.1 -38.35 181.1 -37.62 L 181.1 -25.08 C 181.1 -24.35 180.51 -23.76 179.78 -23.76 Z M 205.46 -40.92 L 205.46 -5.28 C 205.46 -2.38 207.83 0 210.74 0 L 225.26 0 C 228.16 0 230.54 -2.38 230.54 -5.28 L 230.54 -40.92 C 230.54 -43.82 228.16 -46.2 225.26 -46.2 L 210.74 -46.2 C 207.83 -46.2 205.46 -43.82 205.46 -40.92 Z M 221.3 -7.26 L 214.7 -7.26 C 213.97 -7.26 213.38 -7.85 213.38 -8.58 L 213.38 -37.62 C 213.38 -38.35 213.97 -38.94 214.7 -38.94 L 221.3 -38.94 C 222.02 -38.94 222.62 -38.35 222.62 -37.62 L 222.62 -8.58 C 222.62 -7.85 222.02 -7.26 221.3 -7.26 Z M 268.09 -46.2 L 248.29 -46.2 L 248.29 0 L 250.93 0 C 253.84 0 256.21 -2.38 256.21 -5.28 L 256.21 -16.5 L 259.78 -16.5 L 263.74 -5.02 C 264.66 -2.24 267.83 0 270.73 0 L 273.37 0 L 267.63 -16.5 L 268.09 -16.5 C 271 -16.5 273.37 -18.88 273.37 -21.78 L 273.37 -40.92 C 273.37 -43.82 271 -46.2 268.09 -46.2 Z M 264.13 -23.76 L 256.21 -23.76 L 256.21 -38.94 L 264.13 -38.94 C 264.86 -38.94 265.45 -38.35 265.45 -37.62 L 265.45 -25.08 C 265.45 -24.35 264.86 -23.76 264.13 -23.76 Z M 312.71 -44.22 L 312.71 -46.2 L 287.63 -46.2 L 287.63 -44.22 C 287.63 -41.32 290 -38.94 292.91 -38.94 L 296.21 -38.94 L 296.21 0 L 298.85 0 C 301.75 0 304.13 -2.38 304.13 -5.28 L 304.13 -38.94 L 307.43 -38.94 C 310.33 -38.94 312.71 -41.32 312.71 -44.22 Z" stroke-linecap="round" />
</g>
</g>
</g>
<g transform="matrix(1.9211538461538462 0 0 1.9211538461538462 635.0508697632683 843.7004488076923)" id="tagline-920d372a-ebda-4244-8fec-0e29f9820411-logo"  >
<g style=""  paint-order="stroke"   >
		<g transform="matrix(1 0 0 1 0 0)" id="tagline-920d372a-ebda-4244-8fec-0e29f9820411-logo-path-0"  >
<path style="stroke: none; stroke-width: 0; stroke-dasharray: none; stroke-linecap: butt; stroke-dashoffset: 0; stroke-linejoin: miter; stroke-miterlimit: 4; fill: rgb(121,32,136); fill-rule: nonzero; opacity: 1;"  paint-order="stroke"  transform=" translate(-225.74, 11.55)" d="M 11.19 -1.32 L 11.19 -10.46 L 17.42 -20.92 C 17.59 -21.22 17.66 -21.48 17.66 -21.78 C 17.66 -22.7 16.93 -23.43 16 -23.43 C 15.41 -23.43 14.88 -23.13 14.59 -22.64 L 9.54 -14.16 L 4.55 -22.61 C 4.29 -23.07 3.73 -23.43 3.14 -23.43 C 2.21 -23.43 1.49 -22.7 1.49 -21.78 C 1.49 -21.48 1.58 -21.19 1.72 -20.96 L 7.89 -10.49 L 7.89 -1.32 C 7.89 -0.4 8.61 0.33 9.54 0.33 C 10.46 0.33 11.19 -0.4 11.19 -1.32 Z M 37.85 -6.47 L 37.85 -16.63 C 37.85 -20.39 34.82 -23.43 31.02 -23.43 L 30.13 -23.43 C 26.2 -23.43 23.3 -20.53 23.3 -16.6 L 23.3 -6.5 C 23.3 -2.57 26.2 0.33 30.13 0.33 L 31.02 0.33 C 34.82 0.33 37.85 -2.71 37.85 -6.47 Z M 34.55 -16.63 L 34.55 -6.47 C 34.55 -4.55 32.97 -2.97 31.02 -2.97 L 30.13 -2.97 C 28.05 -2.97 26.6 -4.42 26.6 -6.5 L 26.6 -16.6 C 26.6 -18.68 28.05 -20.13 30.13 -20.13 L 31.02 -20.13 C 32.97 -20.13 34.55 -18.55 34.55 -16.63 Z M 43.49 -21.78 L 43.49 -6.5 C 43.49 -2.57 46.4 0.33 50.33 0.33 L 51.22 0.33 C 55.01 0.33 58.05 -2.71 58.05 -6.47 L 58.05 -21.78 C 58.05 -22.7 57.32 -23.43 56.4 -23.43 C 55.47 -23.43 54.75 -22.7 54.75 -21.78 L 54.75 -6.47 C 54.75 -4.55 53.16 -2.97 51.22 -2.97 L 50.33 -2.97 C 48.25 -2.97 46.79 -4.42 46.79 -6.5 L 46.79 -21.78 C 46.79 -22.7 46.07 -23.43 45.14 -23.43 C 44.22 -23.43 43.49 -22.7 43.49 -21.78 Z M 63.69 -1.32 C 63.69 -0.4 64.42 0.33 65.34 0.33 C 66.26 0.33 66.99 -0.4 66.99 -1.32 L 66.99 -9.47 L 69.53 -9.47 L 75.21 -0.43 C 75.47 0 76 0.33 76.59 0.33 C 77.52 0.33 78.24 -0.4 78.24 -1.32 C 78.24 -1.65 78.14 -1.95 77.98 -2.21 L 73.26 -9.74 C 76.16 -10.53 78.24 -13.17 78.24 -16.3 C 78.24 -20.06 75.21 -23.1 71.41 -23.1 L 65.67 -23.1 C 64.55 -23.1 63.69 -22.24 63.69 -21.12 Z M 66.99 -12.77 L 66.99 -19.8 L 71.41 -19.8 C 73.36 -19.8 74.94 -18.22 74.94 -16.3 C 74.94 -14.36 73.36 -12.77 71.41 -12.77 Z M 98.11 -19.8 L 101.9 -19.8 L 101.9 -1.32 C 101.9 -0.4 102.63 0.33 103.55 0.33 C 104.48 0.33 105.2 -0.4 105.2 -1.32 L 105.2 -19.8 L 109 -19.8 C 109.92 -19.8 110.65 -20.53 110.65 -21.45 C 110.65 -22.37 109.92 -23.1 109 -23.1 L 98.11 -23.1 C 97.19 -23.1 96.46 -22.37 96.46 -21.45 C 96.46 -20.53 97.19 -19.8 98.11 -19.8 Z M 119.59 -1.32 L 119.59 -21.78 C 119.59 -22.7 118.87 -23.43 117.94 -23.43 C 117.02 -23.43 116.29 -22.7 116.29 -21.78 L 116.29 -1.32 C 116.29 -0.4 117.02 0.33 117.94 0.33 C 118.87 0.33 119.59 -0.4 119.59 -1.32 Z M 139.79 -16.63 C 139.79 -20.39 136.75 -23.43 132.96 -23.43 L 132.07 -23.43 C 128.14 -23.43 125.23 -20.53 125.23 -16.6 L 125.23 -6.5 C 125.23 -2.57 128.14 0.33 132.07 0.33 L 132.96 0.33 C 136.75 0.33 139.79 -2.71 139.79 -6.47 C 139.79 -7.39 139.06 -8.12 138.14 -8.12 C 137.21 -8.12 136.49 -7.39 136.49 -6.47 C 136.49 -4.55 134.9 -2.97 132.96 -2.97 L 132.07 -2.97 C 129.99 -2.97 128.53 -4.42 128.53 -6.5 L 128.53 -16.6 C 128.53 -18.68 129.99 -20.13 132.07 -20.13 L 132.96 -20.13 C 134.9 -20.13 136.49 -18.55 136.49 -16.63 C 136.49 -15.71 137.21 -14.98 138.14 -14.98 C 139.06 -14.98 139.79 -15.71 139.79 -16.63 Z M 148.73 -1.32 L 148.73 -6.93 L 150.55 -9.34 L 156.62 -0.4 C 156.91 0.07 157.41 0.33 157.97 0.33 C 158.9 0.33 159.62 -0.4 159.62 -1.32 C 159.62 -1.65 159.52 -1.95 159.32 -2.24 L 152.69 -12.01 L 152.66 -12.08 L 159.29 -20.79 C 159.49 -21.05 159.62 -21.42 159.62 -21.78 C 159.62 -22.7 158.9 -23.43 157.97 -23.43 C 157.44 -23.43 156.98 -23.2 156.65 -22.77 L 148.73 -12.38 L 148.73 -21.78 C 148.73 -22.7 148 -23.43 147.08 -23.43 C 146.16 -23.43 145.43 -22.7 145.43 -21.78 L 145.43 -1.32 C 145.43 -0.4 146.16 0.33 147.08 0.33 C 148 0.33 148.73 -0.4 148.73 -1.32 Z M 177.8 -3.3 L 168.56 -3.3 L 168.56 -9.9 L 174.5 -9.9 C 175.43 -9.9 176.15 -10.63 176.15 -11.55 C 176.15 -12.47 175.43 -13.2 174.5 -13.2 L 168.56 -13.2 L 168.56 -19.8 L 177.8 -19.8 C 178.73 -19.8 179.45 -20.53 179.45 -21.45 C 179.45 -22.37 178.73 -23.1 177.8 -23.1 L 167.24 -23.1 C 166.12 -23.1 165.26 -22.24 165.26 -21.12 L 165.26 -1.98 C 165.26 -0.86 166.12 0 167.24 0 L 177.8 0 C 178.73 0 179.45 -0.73 179.45 -1.65 C 179.45 -2.57 178.73 -3.3 177.8 -3.3 Z M 186.75 -19.8 L 190.54 -19.8 L 190.54 -1.32 C 190.54 -0.4 191.27 0.33 192.19 0.33 C 193.12 0.33 193.84 -0.4 193.84 -1.32 L 193.84 -19.8 L 197.64 -19.8 C 198.56 -19.8 199.29 -20.53 199.29 -21.45 C 199.29 -22.37 198.56 -23.1 197.64 -23.1 L 186.75 -23.1 C 185.82 -23.1 185.1 -22.37 185.1 -21.45 C 185.1 -20.53 185.82 -19.8 186.75 -19.8 Z M 219.15 -19.8 L 222.95 -19.8 L 222.95 -1.32 C 222.95 -0.4 223.67 0.33 224.6 0.33 C 225.52 0.33 226.25 -0.4 226.25 -1.32 L 226.25 -19.8 L 230.04 -19.8 C 230.97 -19.8 231.69 -20.53 231.69 -21.45 C 231.69 -22.37 230.97 -23.1 230.04 -23.1 L 219.15 -23.1 C 218.23 -23.1 217.5 -22.37 217.5 -21.45 C 217.5 -20.53 218.23 -19.8 219.15 -19.8 Z M 251.89 -6.47 L 251.89 -16.63 C 251.89 -20.39 248.85 -23.43 245.06 -23.43 L 244.17 -23.43 C 240.24 -23.43 237.34 -20.53 237.34 -16.6 L 237.34 -6.5 C 237.34 -2.57 240.24 0.33 244.17 0.33 L 245.06 0.33 C 248.85 0.33 251.89 -2.71 251.89 -6.47 Z M 248.59 -16.63 L 248.59 -6.47 C 248.59 -4.55 247 -2.97 245.06 -2.97 L 244.17 -2.97 C 242.09 -2.97 240.64 -4.42 240.64 -6.5 L 240.64 -16.6 C 240.64 -18.68 242.09 -20.13 244.17 -20.13 L 245.06 -20.13 C 247 -20.13 248.59 -18.55 248.59 -16.63 Z M 279.81 -1.32 L 279.81 -10.46 L 286.04 -20.92 C 286.21 -21.22 286.27 -21.48 286.27 -21.78 C 286.27 -22.7 285.55 -23.43 284.62 -23.43 C 284.03 -23.43 283.5 -23.13 283.21 -22.64 L 278.16 -14.16 L 273.17 -22.61 C 272.91 -23.07 272.35 -23.43 271.75 -23.43 C 270.83 -23.43 270.1 -22.7 270.1 -21.78 C 270.1 -21.48 270.2 -21.19 270.34 -20.96 L 276.51 -10.49 L 276.51 -1.32 C 276.51 -0.4 277.23 0.33 278.16 0.33 C 279.08 0.33 279.81 -0.4 279.81 -1.32 Z M 304.46 -3.3 L 295.22 -3.3 L 295.22 -9.9 L 301.16 -9.9 C 302.08 -9.9 302.81 -10.63 302.81 -11.55 C 302.81 -12.47 302.08 -13.2 301.16 -13.2 L 295.22 -13.2 L 295.22 -19.8 L 304.46 -19.8 C 305.38 -19.8 306.11 -20.53 306.11 -21.45 C 306.11 -22.37 305.38 -23.1 304.46 -23.1 L 293.9 -23.1 C 292.78 -23.1 291.92 -22.24 291.92 -21.12 L 291.92 -1.98 C 291.92 -0.86 292.78 0 293.9 0 L 304.46 0 C 305.38 0 306.11 -0.73 306.11 -1.65 C 306.11 -2.57 305.38 -3.3 304.46 -3.3 Z M 311.75 -6.5 C 311.75 -2.57 314.65 0.33 318.58 0.33 L 319.47 0.33 C 323.27 0.33 326.3 -2.71 326.3 -6.47 C 326.3 -9.87 323.33 -11.42 319.7 -13.1 C 317 -14.42 315.05 -15.48 315.05 -17.26 C 315.05 -18.68 316.5 -20.13 318.58 -20.13 L 319.47 -20.13 C 321.42 -20.13 323 -18.55 323 -16.63 C 323 -15.71 323.73 -14.98 324.65 -14.98 C 325.58 -14.98 326.3 -15.71 326.3 -16.63 C 326.3 -20.39 323.27 -23.43 319.47 -23.43 L 318.58 -23.43 C 314.65 -23.43 311.75 -20.53 311.75 -17.26 C 311.75 -13.3 315.45 -11.52 318.32 -10.13 C 321.12 -8.81 323 -7.89 323 -6.47 C 323 -4.55 321.42 -2.97 319.47 -2.97 L 318.58 -2.97 C 316.5 -2.97 315.05 -4.42 315.05 -6.5 C 315.05 -7.43 314.32 -8.15 313.4 -8.15 C 312.48 -8.15 311.75 -7.43 311.75 -6.5 Z M 333.6 -19.8 L 337.39 -19.8 L 337.39 -1.32 C 337.39 -0.4 338.12 0.33 339.04 0.33 C 339.97 0.33 340.69 -0.4 340.69 -1.32 L 340.69 -19.8 L 344.49 -19.8 C 345.41 -19.8 346.14 -20.53 346.14 -21.45 C 346.14 -22.37 345.41 -23.1 344.49 -23.1 L 333.6 -23.1 C 332.67 -23.1 331.95 -22.37 331.95 -21.45 C 331.95 -20.53 332.67 -19.8 333.6 -19.8 Z M 364.32 -3.3 L 355.08 -3.3 L 355.08 -9.9 L 361.02 -9.9 C 361.94 -9.9 362.67 -10.63 362.67 -11.55 C 362.67 -12.47 361.94 -13.2 361.02 -13.2 L 355.08 -13.2 L 355.08 -19.8 L 364.32 -19.8 C 365.24 -19.8 365.97 -20.53 365.97 -21.45 C 365.97 -22.37 365.24 -23.1 364.32 -23.1 L 353.76 -23.1 C 352.64 -23.1 351.78 -22.24 351.78 -21.12 L 351.78 -1.98 C 351.78 -0.86 352.64 0 353.76 0 L 364.32 0 C 365.24 0 365.97 -0.73 365.97 -1.65 C 365.97 -2.57 365.24 -3.3 364.32 -3.3 Z M 371.61 -1.32 C 371.61 -0.4 372.34 0.33 373.26 0.33 C 374.19 0.33 374.91 -0.4 374.91 -1.32 L 374.91 -9.47 L 377.45 -9.47 L 383.13 -0.43 C 383.39 0 383.92 0.33 384.52 0.33 C 385.44 0.33 386.17 -0.4 386.17 -1.32 C 386.17 -1.65 386.07 -1.95 385.9 -2.21 L 381.18 -9.74 C 384.09 -10.53 386.17 -13.17 386.17 -16.3 C 386.17 -20.06 383.13 -23.1 379.34 -23.1 L 373.59 -23.1 C 372.47 -23.1 371.61 -22.24 371.61 -21.12 Z M 374.91 -12.77 L 374.91 -19.8 L 379.34 -19.8 C 381.28 -19.8 382.87 -18.22 382.87 -16.3 C 382.87 -14.36 381.28 -12.77 379.34 -12.77 Z M 406.36 -6.8 L 406.36 -16.7 C 406.36 -20.26 403.52 -23.1 399.96 -23.1 L 393.79 -23.1 C 392.67 -23.1 391.81 -22.24 391.81 -21.12 L 391.81 -1.98 C 391.81 -0.86 392.67 0 393.79 0 L 399.53 0 C 403.33 0 406.36 -3.04 406.36 -6.8 Z M 403.06 -16.7 L 403.06 -6.8 C 403.06 -4.88 401.48 -3.3 399.53 -3.3 L 395.11 -3.3 L 395.11 -19.8 L 399.96 -19.8 C 401.68 -19.8 403.06 -18.41 403.06 -16.7 Z M 415.24 -0.83 L 416.53 -4.95 L 423.65 -4.95 L 424.94 -0.83 C 425.17 -0.13 425.8 0.33 426.53 0.33 C 427.45 0.33 428.18 -0.4 428.18 -1.32 C 428.18 -1.49 428.14 -1.68 428.11 -1.82 L 421.71 -22.28 C 421.48 -22.97 420.85 -23.43 420.12 -23.43 L 420.09 -23.43 L 420.06 -23.43 C 419.33 -23.43 418.67 -22.9 418.47 -22.28 L 412.07 -1.82 C 412.04 -1.68 412.01 -1.49 412.01 -1.32 C 412.01 -0.4 412.73 0.33 413.66 0.33 C 414.38 0.33 415.04 -0.2 415.24 -0.83 Z M 417.55 -8.25 L 420.09 -16.34 L 422.63 -8.25 Z M 443.52 -1.32 L 443.52 -10.46 L 449.76 -20.92 C 449.92 -21.22 449.99 -21.48 449.99 -21.78 C 449.99 -22.7 449.26 -23.43 448.34 -23.43 C 447.74 -23.43 447.22 -23.13 446.92 -22.64 L 441.87 -14.16 L 436.89 -22.61 C 436.62 -23.07 436.06 -23.43 435.47 -23.43 C 434.54 -23.43 433.82 -22.7 433.82 -21.78 C 433.82 -21.48 433.92 -21.19 434.05 -20.96 L 440.22 -10.49 L 440.22 -1.32 C 440.22 -0.4 440.95 0.33 441.87 0.33 C 442.79 0.33 443.52 -0.4 443.52 -1.32 Z" stroke-linecap="round" />
</g>
</g>
</g>
</svg>